<?xml version="1.0" encoding="utf-8"?>
<!-- Generator: Adobe Illustrator 19.2.1, SVG Export Plug-In . SVG Version: 6.00 Build 0)  -->
<svg version="1.1" id="Han_Kjobenhavn" xmlns="http://www.w3.org/2000/svg" xmlns:xlink="http://www.w3.org/1999/xlink" x="0px" y="0px"
	 width="400px" height="220px" viewBox="0 0 400 220" enable-background="new 0 0 400 220" xml:space="preserve">
<title>Han Kjobenhavn</title>
<g>
	<g>
		<polygon fill="#1D1D1B" points="28.4,139.1 23.6,139.1 23.6,112.5 14,112.5 14,139.1 9.1,139.1 9.1,81.2 14,81.2 14,107.7 
			23.6,107.7 23.6,81.2 28.4,81.2 		"/>
		<path fill="#1D1D1B" d="M61.5,139.1h-4.8l-2.4-14.5h-9.7l-2.4,14.5h-4.8L47,81.2h4.8L61.5,139.1z M53.5,119.8l-4.1-24.1l-4.1,24.1
			H53.5z"/>
		<polygon fill="#1D1D1B" points="89.7,139.1 84.9,139.1 75.2,100.5 75.2,139.1 70.4,139.1 70.4,81.2 75.2,81.2 84.9,119.8 
			84.9,81.2 89.7,81.2 		"/>
		<g>
			<path fill="#1D1D1B" d="M160.9,129.4c0,2.6-1,4.9-2.8,6.8c-1.9,1.9-4.2,2.8-6.8,2.8c-2.6,0-4.9-0.9-6.8-2.8
				c-1.9-1.9-2.8-4.2-2.8-6.8v-4.8h4.8v4.8c0,1.4,0.5,2.5,1.4,3.4c0.9,0.9,2.1,1.4,3.4,1.4c1.4,0,2.5-0.5,3.4-1.4
				c0.9-0.9,1.4-2.1,1.4-3.4V81.2h4.8V129.4z"/>
			<path fill="#1D1D1B" d="M219.3,129.4c0,2.6-1,4.9-2.8,6.8c-1.9,1.9-4.2,2.8-6.8,2.8H200V81.2h9.7c2.6,0,4.9,1,6.8,2.8
				c1.9,1.9,2.8,4.2,2.8,6.8v12.1c0,2.9-1.1,5.3-3.3,7.2c2.2,1.9,3.3,4.3,3.3,7.2V129.4z M214.5,102.9V90.8c0-1.4-0.5-2.5-1.4-3.4
				c-0.9-0.9-2.1-1.4-3.4-1.4h-4.8v21.7h4.8c1.3,0,2.5-0.5,3.4-1.4C214,105.4,214.5,104.2,214.5,102.9 M214.5,129.4v-12.1
				c0-1.4-0.5-2.5-1.4-3.4c-0.9-0.9-2.1-1.4-3.4-1.4h-4.8v21.7h4.8c1.3,0,2.5-0.5,3.4-1.4C214,131.9,214.5,130.8,214.5,129.4"/>
			<polygon fill="#1D1D1B" points="247.5,139.1 228.2,139.1 228.2,81.2 247.5,81.2 247.5,86 233.1,86 233.1,107.7 243.7,107.7 
				243.7,112.5 233.1,112.5 233.1,134.3 247.5,134.3 			"/>
			<polygon fill="#1D1D1B" points="275.7,139.1 270.9,139.1 261.3,100.5 261.3,139.1 256.5,139.1 256.5,81.2 261.3,81.2 
				270.9,119.8 270.9,81.2 275.7,81.2 			"/>
			<polygon fill="#1D1D1B" points="305,139.1 300.1,139.1 300.1,112.5 290.5,112.5 290.5,139.1 285.7,139.1 285.7,81.2 290.5,81.2 
				290.5,107.7 300.1,107.7 300.1,81.2 305,81.2 			"/>
			<path fill="#1D1D1B" d="M338,139.1h-4.8l-2.4-14.5h-9.7l-2.4,14.5h-4.8l9.6-57.9h4.8L338,139.1z M330,119.8l-4-24.1l-4.1,24.1
				H330z"/>
			<polygon fill="#1D1D1B" points="363.6,81.2 354,139.1 349.2,139.1 339.5,81.2 344.3,81.2 351.6,124.6 358.8,81.2 			"/>
			<polygon fill="#1D1D1B" points="390.9,139.1 386,139.1 376.4,100.5 376.4,139.1 371.6,139.1 371.6,81.2 376.4,81.2 386,119.8 
				386,81.2 390.9,81.2 			"/>
			<path fill="#1D1D1B" d="M191,80.6l-3.9-1.1l-1,3.5c-1.6-1.2-3.5-1.8-5.6-1.8c-2.6,0-4.9,1-6.8,2.8c-1.9,1.9-2.8,4.2-2.8,6.8v38.6
				c0,1.5,0.3,2.8,0.9,4l-1.7,6l3.9,1.1l0.9-3.3c1.6,1.2,3.5,1.8,5.6,1.8c2.6,0,4.9-0.9,6.8-2.8c1.9-1.9,2.8-4.2,2.8-6.8V90.8
				c0-1.5-0.3-2.8-0.9-4L191,80.6z M175.6,90.8c0-1.4,0.5-2.5,1.4-3.4c0.9-0.9,2.1-1.4,3.4-1.4c1.4,0,2.5,0.5,3.4,1.4
				c0.3,0.3,0.5,0.5,0.7,0.8l-8.9,31.4V90.8z M185.3,129.4c0,1.4-0.5,2.5-1.4,3.4c-0.9,0.9-2.1,1.4-3.4,1.4c-1.3,0-2.5-0.5-3.4-1.4
				c-0.3-0.3-0.5-0.5-0.7-0.8l8.9-31.4V129.4z"/>
			<polygon fill="#1D1D1B" points="135.9,138.9 130.9,138.9 121.6,112.4 121.6,138.9 116.8,138.9 116.8,81.3 121.6,81.3 
				121.6,107.6 130.9,81.3 135.9,81.3 125.7,110.1 			"/>
		</g>
	</g>
</g>
</svg>
